<mxfile host="app.diagrams.net" modified="2024-05-07T07:20:23.820Z" agent="Mozilla/5.0 (Windows NT 10.0; Win64; x64) AppleWebKit/537.36 (KHTML, like Gecko) Chrome/124.0.0.0 Safari/537.36 Edg/124.0.0.0" etag="Vps4lZ9hmSR307xM6RnI" version="24.3.1" type="device">
  <diagram name="Página-1" id="J2v-TdgKj59ZXTWYB8F-">
    <mxGraphModel dx="1188" dy="661" grid="1" gridSize="10" guides="1" tooltips="1" connect="1" arrows="1" fold="1" page="1" pageScale="1" pageWidth="1169" pageHeight="827" math="0" shadow="0">
      <root>
        <mxCell id="0" />
        <mxCell id="1" parent="0" />
        <mxCell id="CJnJMejJHdUVeMbxGaK8-14" style="edgeStyle=orthogonalEdgeStyle;rounded=0;orthogonalLoop=1;jettySize=auto;html=1;exitX=1;exitY=0.5;exitDx=0;exitDy=0;entryX=0;entryY=0.5;entryDx=0;entryDy=0;" parent="1" source="CJnJMejJHdUVeMbxGaK8-1" target="CJnJMejJHdUVeMbxGaK8-13" edge="1">
          <mxGeometry relative="1" as="geometry" />
        </mxCell>
        <mxCell id="CJnJMejJHdUVeMbxGaK8-1" value="Ventana LOGIN" style="rounded=1;whiteSpace=wrap;html=1;" parent="1" vertex="1">
          <mxGeometry x="6" y="384" width="120" height="60" as="geometry" />
        </mxCell>
        <mxCell id="CJnJMejJHdUVeMbxGaK8-3" value="Nuevo Usuario" style="rounded=1;whiteSpace=wrap;html=1;" parent="1" vertex="1">
          <mxGeometry x="176" y="200" width="120" height="30" as="geometry" />
        </mxCell>
        <mxCell id="CJnJMejJHdUVeMbxGaK8-16" style="edgeStyle=orthogonalEdgeStyle;rounded=0;orthogonalLoop=1;jettySize=auto;html=1;exitX=0;exitY=0.5;exitDx=0;exitDy=0;entryX=0;entryY=0.5;entryDx=0;entryDy=0;startArrow=classic;startFill=1;" parent="1" source="CJnJMejJHdUVeMbxGaK8-4" target="CJnJMejJHdUVeMbxGaK8-3" edge="1">
          <mxGeometry relative="1" as="geometry" />
        </mxCell>
        <mxCell id="CJnJMejJHdUVeMbxGaK8-4" value="¿Ha olvidado su contraseña?" style="rounded=1;whiteSpace=wrap;html=1;" parent="1" vertex="1">
          <mxGeometry x="176" y="490" width="120" height="30" as="geometry" />
        </mxCell>
        <mxCell id="OYWwjHaSAx933lPuoC0m-6" style="edgeStyle=orthogonalEdgeStyle;rounded=0;orthogonalLoop=1;jettySize=auto;html=1;exitX=1;exitY=0.5;exitDx=0;exitDy=0;endArrow=none;endFill=0;" edge="1" parent="1" source="CJnJMejJHdUVeMbxGaK8-7">
          <mxGeometry relative="1" as="geometry">
            <mxPoint x="480" y="414" as="targetPoint" />
          </mxGeometry>
        </mxCell>
        <mxCell id="OYWwjHaSAx933lPuoC0m-50" value="" style="edgeStyle=orthogonalEdgeStyle;rounded=0;orthogonalLoop=1;jettySize=auto;html=1;endArrow=none;endFill=0;" edge="1" parent="1" source="CJnJMejJHdUVeMbxGaK8-7" target="CJnJMejJHdUVeMbxGaK8-13">
          <mxGeometry relative="1" as="geometry" />
        </mxCell>
        <mxCell id="CJnJMejJHdUVeMbxGaK8-7" value="Administrador" style="rounded=1;whiteSpace=wrap;html=1;fillColor=#fff2cc;strokeColor=#d6b656;" parent="1" vertex="1">
          <mxGeometry x="318" y="399" width="120" height="30" as="geometry" />
        </mxCell>
        <mxCell id="CJnJMejJHdUVeMbxGaK8-13" value="Usuario / Contraseña" style="rounded=1;whiteSpace=wrap;html=1;" parent="1" vertex="1">
          <mxGeometry x="176" y="399" width="120" height="30" as="geometry" />
        </mxCell>
        <mxCell id="G48LcPeiplBSXSL7Oj50-13" style="edgeStyle=orthogonalEdgeStyle;rounded=0;orthogonalLoop=1;jettySize=auto;html=1;exitX=0.5;exitY=0;exitDx=0;exitDy=0;exitPerimeter=0;entryX=0;entryY=0.5;entryDx=0;entryDy=0;" parent="1" source="CJnJMejJHdUVeMbxGaK8-18" target="G48LcPeiplBSXSL7Oj50-12" edge="1">
          <mxGeometry relative="1" as="geometry" />
        </mxCell>
        <mxCell id="OYWwjHaSAx933lPuoC0m-41" style="edgeStyle=orthogonalEdgeStyle;rounded=0;orthogonalLoop=1;jettySize=auto;html=1;exitX=0;exitY=0;exitDx=120;exitDy=42.5;exitPerimeter=0;entryX=0;entryY=0.5;entryDx=0;entryDy=0;dashed=1;" edge="1" parent="1" source="CJnJMejJHdUVeMbxGaK8-18" target="OYWwjHaSAx933lPuoC0m-40">
          <mxGeometry relative="1" as="geometry" />
        </mxCell>
        <mxCell id="CJnJMejJHdUVeMbxGaK8-18" value="Vista registro Usuario" style="shape=note2;boundedLbl=1;whiteSpace=wrap;html=1;size=25;verticalAlign=top;align=center;fillColor=#f5f5f5;gradientColor=#b3b3b3;strokeColor=#666666;" parent="1" vertex="1">
          <mxGeometry x="176" y="101" width="120" height="60" as="geometry" />
        </mxCell>
        <mxCell id="CJnJMejJHdUVeMbxGaK8-21" style="edgeStyle=orthogonalEdgeStyle;rounded=0;orthogonalLoop=1;jettySize=auto;html=1;exitX=0.5;exitY=0;exitDx=0;exitDy=0;entryX=0.5;entryY=1;entryDx=0;entryDy=0;entryPerimeter=0;" parent="1" source="CJnJMejJHdUVeMbxGaK8-3" target="CJnJMejJHdUVeMbxGaK8-18" edge="1">
          <mxGeometry relative="1" as="geometry" />
        </mxCell>
        <mxCell id="G48LcPeiplBSXSL7Oj50-18" style="edgeStyle=orthogonalEdgeStyle;rounded=0;orthogonalLoop=1;jettySize=auto;html=1;exitX=1;exitY=0.5;exitDx=0;exitDy=0;endArrow=none;endFill=0;" parent="1" source="CJnJMejJHdUVeMbxGaK8-22" edge="1">
          <mxGeometry relative="1" as="geometry">
            <mxPoint x="650" y="281.04761904761904" as="targetPoint" />
          </mxGeometry>
        </mxCell>
        <mxCell id="OYWwjHaSAx933lPuoC0m-5" style="edgeStyle=orthogonalEdgeStyle;rounded=0;orthogonalLoop=1;jettySize=auto;html=1;exitX=0;exitY=0.5;exitDx=0;exitDy=0;entryX=0;entryY=0.5;entryDx=0;entryDy=0;startArrow=classic;startFill=1;" edge="1" parent="1" source="CJnJMejJHdUVeMbxGaK8-22" target="OYWwjHaSAx933lPuoC0m-4">
          <mxGeometry relative="1" as="geometry" />
        </mxCell>
        <mxCell id="OYWwjHaSAx933lPuoC0m-53" style="edgeStyle=orthogonalEdgeStyle;rounded=0;orthogonalLoop=1;jettySize=auto;html=1;exitX=0.25;exitY=0;exitDx=0;exitDy=0;entryX=0.5;entryY=0;entryDx=0;entryDy=0;" edge="1" parent="1" source="CJnJMejJHdUVeMbxGaK8-22" target="OYWwjHaSAx933lPuoC0m-51">
          <mxGeometry relative="1" as="geometry" />
        </mxCell>
        <mxCell id="CJnJMejJHdUVeMbxGaK8-22" value="Usuarios" style="rounded=1;whiteSpace=wrap;html=1;fillColor=#fff2cc;strokeColor=#d6b656;" parent="1" vertex="1">
          <mxGeometry x="500" y="266" width="120" height="30" as="geometry" />
        </mxCell>
        <mxCell id="G48LcPeiplBSXSL7Oj50-24" style="edgeStyle=orthogonalEdgeStyle;rounded=0;orthogonalLoop=1;jettySize=auto;html=1;exitX=0.5;exitY=0;exitDx=0;exitDy=0;entryX=0;entryY=0.5;entryDx=0;entryDy=0;" parent="1" source="CJnJMejJHdUVeMbxGaK8-24" target="CJnJMejJHdUVeMbxGaK8-92" edge="1">
          <mxGeometry relative="1" as="geometry" />
        </mxCell>
        <mxCell id="G48LcPeiplBSXSL7Oj50-73" style="edgeStyle=orthogonalEdgeStyle;rounded=0;orthogonalLoop=1;jettySize=auto;html=1;exitX=0.25;exitY=0;exitDx=0;exitDy=0;dashed=1;endArrow=none;endFill=0;targetPerimeterSpacing=8;jumpSize=16;arcSize=31;" parent="1" edge="1">
          <mxGeometry relative="1" as="geometry">
            <mxPoint x="684.4651162790698" y="203" as="targetPoint" />
            <mxPoint x="684.5" y="249" as="sourcePoint" />
          </mxGeometry>
        </mxCell>
        <mxCell id="CJnJMejJHdUVeMbxGaK8-24" value="Solicitudes Pendientes" style="rounded=1;whiteSpace=wrap;html=1;fillColor=#dae8fc;strokeColor=#6c8ebf;" parent="1" vertex="1">
          <mxGeometry x="670" y="246" width="70" height="30" as="geometry" />
        </mxCell>
        <mxCell id="CJnJMejJHdUVeMbxGaK8-33" style="edgeStyle=orthogonalEdgeStyle;rounded=0;orthogonalLoop=1;jettySize=auto;html=1;exitX=0;exitY=0.5;exitDx=0;exitDy=0;entryX=0;entryY=0.5;entryDx=0;entryDy=0;startArrow=classic;startFill=1;" parent="1" source="CJnJMejJHdUVeMbxGaK8-25" target="CJnJMejJHdUVeMbxGaK8-24" edge="1">
          <mxGeometry relative="1" as="geometry" />
        </mxCell>
        <mxCell id="G48LcPeiplBSXSL7Oj50-61" style="edgeStyle=orthogonalEdgeStyle;rounded=0;orthogonalLoop=1;jettySize=auto;html=1;exitX=0.25;exitY=1;exitDx=0;exitDy=0;entryX=1;entryY=0.5;entryDx=0;entryDy=0;dashed=1;" parent="1" source="CJnJMejJHdUVeMbxGaK8-25" target="G48LcPeiplBSXSL7Oj50-60" edge="1">
          <mxGeometry relative="1" as="geometry" />
        </mxCell>
        <mxCell id="CJnJMejJHdUVeMbxGaK8-25" value="Consultar Usuarios" style="rounded=1;whiteSpace=wrap;html=1;fillColor=#dae8fc;strokeColor=#6c8ebf;" parent="1" vertex="1">
          <mxGeometry x="670" y="286" width="70" height="30" as="geometry" />
        </mxCell>
        <mxCell id="G48LcPeiplBSXSL7Oj50-71" style="edgeStyle=orthogonalEdgeStyle;rounded=0;orthogonalLoop=1;jettySize=auto;html=1;exitX=0;exitY=0;exitDx=47.5;exitDy=0;exitPerimeter=0;entryX=1;entryY=0.5;entryDx=0;entryDy=0;dashed=1;" parent="1" source="CJnJMejJHdUVeMbxGaK8-62" target="CJnJMejJHdUVeMbxGaK8-109" edge="1">
          <mxGeometry relative="1" as="geometry" />
        </mxCell>
        <mxCell id="OYWwjHaSAx933lPuoC0m-43" style="edgeStyle=orthogonalEdgeStyle;rounded=0;orthogonalLoop=1;jettySize=auto;html=1;exitX=0;exitY=0;exitDx=120;exitDy=42.5;exitPerimeter=0;endArrow=none;endFill=0;" edge="1" parent="1" source="CJnJMejJHdUVeMbxGaK8-62">
          <mxGeometry relative="1" as="geometry">
            <mxPoint x="960" y="308.66666666666663" as="targetPoint" />
          </mxGeometry>
        </mxCell>
        <mxCell id="CJnJMejJHdUVeMbxGaK8-62" value="Vista Editar Usuario" style="shape=note2;boundedLbl=1;whiteSpace=wrap;html=1;size=25;verticalAlign=top;align=center;fillColor=#f5f5f5;gradientColor=#b3b3b3;strokeColor=#666666;" parent="1" vertex="1">
          <mxGeometry x="791" y="266" width="120" height="60" as="geometry" />
        </mxCell>
        <mxCell id="G48LcPeiplBSXSL7Oj50-70" style="edgeStyle=orthogonalEdgeStyle;rounded=0;orthogonalLoop=1;jettySize=auto;html=1;exitX=0;exitY=0.25;exitDx=0;exitDy=0;entryX=0.5;entryY=0;entryDx=0;entryDy=0;dashed=1;" parent="1" source="CJnJMejJHdUVeMbxGaK8-92" target="CJnJMejJHdUVeMbxGaK8-109" edge="1">
          <mxGeometry relative="1" as="geometry" />
        </mxCell>
        <mxCell id="CJnJMejJHdUVeMbxGaK8-92" value="Resultados Búsqueda" style="swimlane;whiteSpace=wrap;html=1;startSize=30;fillColor=#f5f5f5;gradientColor=#b3b3b3;strokeColor=#666666;" parent="1" vertex="1">
          <mxGeometry x="791" y="90" width="120" height="62" as="geometry">
            <mxRectangle x="1040" y="188" width="160" height="30" as="alternateBounds" />
          </mxGeometry>
        </mxCell>
        <mxCell id="CJnJMejJHdUVeMbxGaK8-93" value="Tabla dinámina" style="text;html=1;align=center;verticalAlign=middle;whiteSpace=wrap;rounded=0;" parent="CJnJMejJHdUVeMbxGaK8-92" vertex="1">
          <mxGeometry y="35" width="120" height="15" as="geometry" />
        </mxCell>
        <mxCell id="G48LcPeiplBSXSL7Oj50-37" style="edgeStyle=orthogonalEdgeStyle;rounded=0;orthogonalLoop=1;jettySize=auto;html=1;exitX=0.5;exitY=1;exitDx=0;exitDy=0;entryX=0.5;entryY=0;entryDx=0;entryDy=0;dashed=1;" parent="1" source="CJnJMejJHdUVeMbxGaK8-109" target="CJnJMejJHdUVeMbxGaK8-22" edge="1">
          <mxGeometry relative="1" as="geometry" />
        </mxCell>
        <mxCell id="CJnJMejJHdUVeMbxGaK8-109" value="Cancelar" style="ellipse;whiteSpace=wrap;html=1;fillColor=#e51400;strokeColor=#B20000;fontColor=#ffffff;" parent="1" vertex="1">
          <mxGeometry x="522" y="186" width="75" height="36" as="geometry" />
        </mxCell>
        <mxCell id="G48LcPeiplBSXSL7Oj50-12" value="Grabar" style="rhombus;whiteSpace=wrap;html=1;fillColor=#d5e8d4;gradientColor=#97d077;strokeColor=#82b366;" parent="1" vertex="1">
          <mxGeometry x="585" y="5" width="60" height="60" as="geometry" />
        </mxCell>
        <mxCell id="G48LcPeiplBSXSL7Oj50-1" value="BD" style="shape=cylinder3;whiteSpace=wrap;html=1;boundedLbl=1;backgroundOutline=1;size=15;fillColor=#d0cee2;strokeColor=#56517e;" parent="1" vertex="1">
          <mxGeometry x="1081" y="20" width="60" height="750" as="geometry" />
        </mxCell>
        <mxCell id="G48LcPeiplBSXSL7Oj50-14" style="edgeStyle=orthogonalEdgeStyle;rounded=0;orthogonalLoop=1;jettySize=auto;html=1;exitX=1;exitY=0.5;exitDx=0;exitDy=0;entryX=0;entryY=0;entryDx=0;entryDy=15;entryPerimeter=0;" parent="1" source="G48LcPeiplBSXSL7Oj50-12" target="G48LcPeiplBSXSL7Oj50-1" edge="1">
          <mxGeometry relative="1" as="geometry" />
        </mxCell>
        <mxCell id="G48LcPeiplBSXSL7Oj50-59" style="edgeStyle=orthogonalEdgeStyle;rounded=0;orthogonalLoop=1;jettySize=auto;html=1;exitX=1;exitY=0.5;exitDx=0;exitDy=0;" parent="1" source="G48LcPeiplBSXSL7Oj50-15" edge="1">
          <mxGeometry relative="1" as="geometry">
            <mxPoint x="1080" y="341.04761904761904" as="targetPoint" />
          </mxGeometry>
        </mxCell>
        <mxCell id="G48LcPeiplBSXSL7Oj50-15" value="Borrar" style="rhombus;whiteSpace=wrap;html=1;fillColor=#f8cecc;gradientColor=#ea6b66;strokeColor=#b85450;" parent="1" vertex="1">
          <mxGeometry x="981" y="311" width="60" height="60" as="geometry" />
        </mxCell>
        <mxCell id="G48LcPeiplBSXSL7Oj50-49" style="edgeStyle=orthogonalEdgeStyle;rounded=0;orthogonalLoop=1;jettySize=auto;html=1;exitX=0;exitY=0.5;exitDx=0;exitDy=0;entryX=1;entryY=0.5;entryDx=0;entryDy=0;" parent="1" source="G48LcPeiplBSXSL7Oj50-19" target="CJnJMejJHdUVeMbxGaK8-92" edge="1">
          <mxGeometry relative="1" as="geometry" />
        </mxCell>
        <mxCell id="G48LcPeiplBSXSL7Oj50-50" style="edgeStyle=orthogonalEdgeStyle;rounded=0;orthogonalLoop=1;jettySize=auto;html=1;exitX=1;exitY=0.5;exitDx=0;exitDy=0;startArrow=classic;startFill=1;endArrow=none;endFill=0;" parent="1" source="G48LcPeiplBSXSL7Oj50-19" edge="1">
          <mxGeometry relative="1" as="geometry">
            <mxPoint x="1080" y="121.04761904761904" as="targetPoint" />
          </mxGeometry>
        </mxCell>
        <mxCell id="G48LcPeiplBSXSL7Oj50-19" value="Lectura" style="rhombus;whiteSpace=wrap;html=1;fillColor=#dae8fc;gradientColor=#7ea6e0;strokeColor=#6c8ebf;" parent="1" vertex="1">
          <mxGeometry x="961" y="91" width="60" height="60" as="geometry" />
        </mxCell>
        <mxCell id="G48LcPeiplBSXSL7Oj50-56" style="edgeStyle=orthogonalEdgeStyle;rounded=0;orthogonalLoop=1;jettySize=auto;html=1;exitX=0;exitY=0.5;exitDx=0;exitDy=0;entryX=0;entryY=0.5;entryDx=0;entryDy=0;startArrow=classic;startFill=1;" parent="1" source="G48LcPeiplBSXSL7Oj50-25" target="G48LcPeiplBSXSL7Oj50-15" edge="1">
          <mxGeometry relative="1" as="geometry">
            <Array as="points">
              <mxPoint x="960" y="279" />
              <mxPoint x="960" y="341" />
            </Array>
          </mxGeometry>
        </mxCell>
        <mxCell id="G48LcPeiplBSXSL7Oj50-58" style="edgeStyle=orthogonalEdgeStyle;rounded=0;orthogonalLoop=1;jettySize=auto;html=1;exitX=1;exitY=0.5;exitDx=0;exitDy=0;" parent="1" source="G48LcPeiplBSXSL7Oj50-25" edge="1">
          <mxGeometry relative="1" as="geometry">
            <mxPoint x="1080" y="279.1428571428571" as="targetPoint" />
          </mxGeometry>
        </mxCell>
        <mxCell id="G48LcPeiplBSXSL7Oj50-25" value="Grabar" style="rhombus;whiteSpace=wrap;html=1;fillColor=#d5e8d4;gradientColor=#97d077;strokeColor=#82b366;" parent="1" vertex="1">
          <mxGeometry x="981" y="249" width="60" height="60" as="geometry" />
        </mxCell>
        <mxCell id="G48LcPeiplBSXSL7Oj50-38" value="Resultados Búsqueda" style="swimlane;whiteSpace=wrap;html=1;startSize=30;fillColor=#f5f5f5;gradientColor=#b3b3b3;strokeColor=#666666;" parent="1" vertex="1">
          <mxGeometry x="791" y="410" width="120" height="62" as="geometry">
            <mxRectangle x="1040" y="188" width="160" height="30" as="alternateBounds" />
          </mxGeometry>
        </mxCell>
        <mxCell id="G48LcPeiplBSXSL7Oj50-39" value="Tabla dinámina" style="text;html=1;align=center;verticalAlign=middle;whiteSpace=wrap;rounded=0;" parent="G48LcPeiplBSXSL7Oj50-38" vertex="1">
          <mxGeometry y="35" width="120" height="15" as="geometry" />
        </mxCell>
        <mxCell id="G48LcPeiplBSXSL7Oj50-51" style="edgeStyle=orthogonalEdgeStyle;rounded=0;orthogonalLoop=1;jettySize=auto;html=1;exitX=1;exitY=0.5;exitDx=0;exitDy=0;startArrow=classic;startFill=1;endArrow=none;endFill=0;" parent="1" source="G48LcPeiplBSXSL7Oj50-44" edge="1">
          <mxGeometry relative="1" as="geometry">
            <mxPoint x="1080" y="441.16666666666674" as="targetPoint" />
          </mxGeometry>
        </mxCell>
        <mxCell id="G48LcPeiplBSXSL7Oj50-52" style="edgeStyle=orthogonalEdgeStyle;rounded=0;orthogonalLoop=1;jettySize=auto;html=1;exitX=0;exitY=0.5;exitDx=0;exitDy=0;entryX=1;entryY=0.5;entryDx=0;entryDy=0;" parent="1" source="G48LcPeiplBSXSL7Oj50-44" target="G48LcPeiplBSXSL7Oj50-38" edge="1">
          <mxGeometry relative="1" as="geometry" />
        </mxCell>
        <mxCell id="G48LcPeiplBSXSL7Oj50-44" value="Lectura" style="rhombus;whiteSpace=wrap;html=1;fillColor=#dae8fc;gradientColor=#7ea6e0;strokeColor=#6c8ebf;" parent="1" vertex="1">
          <mxGeometry x="981" y="411" width="60" height="60" as="geometry" />
        </mxCell>
        <mxCell id="G48LcPeiplBSXSL7Oj50-54" style="edgeStyle=orthogonalEdgeStyle;rounded=0;orthogonalLoop=1;jettySize=auto;html=1;exitX=0.5;exitY=0;exitDx=0;exitDy=0;entryX=0.5;entryY=1;entryDx=0;entryDy=0;entryPerimeter=0;" parent="1" source="G48LcPeiplBSXSL7Oj50-38" target="CJnJMejJHdUVeMbxGaK8-62" edge="1">
          <mxGeometry relative="1" as="geometry" />
        </mxCell>
        <mxCell id="G48LcPeiplBSXSL7Oj50-55" style="edgeStyle=orthogonalEdgeStyle;rounded=0;orthogonalLoop=1;jettySize=auto;html=1;exitX=0.5;exitY=1;exitDx=0;exitDy=0;entryX=0.5;entryY=0;entryDx=0;entryDy=0;entryPerimeter=0;" parent="1" source="CJnJMejJHdUVeMbxGaK8-92" target="CJnJMejJHdUVeMbxGaK8-62" edge="1">
          <mxGeometry relative="1" as="geometry" />
        </mxCell>
        <mxCell id="G48LcPeiplBSXSL7Oj50-62" style="edgeStyle=orthogonalEdgeStyle;rounded=0;orthogonalLoop=1;jettySize=auto;html=1;exitX=0.5;exitY=0;exitDx=0;exitDy=0;entryX=0.5;entryY=1;entryDx=0;entryDy=0;dashed=1;" parent="1" source="G48LcPeiplBSXSL7Oj50-60" target="CJnJMejJHdUVeMbxGaK8-22" edge="1">
          <mxGeometry relative="1" as="geometry" />
        </mxCell>
        <mxCell id="G48LcPeiplBSXSL7Oj50-60" value="Cancelar" style="ellipse;whiteSpace=wrap;html=1;fillColor=#e51400;strokeColor=#B20000;fontColor=#ffffff;" parent="1" vertex="1">
          <mxGeometry x="522" y="335" width="75" height="36" as="geometry" />
        </mxCell>
        <mxCell id="G48LcPeiplBSXSL7Oj50-65" style="edgeStyle=orthogonalEdgeStyle;rounded=0;orthogonalLoop=1;jettySize=auto;html=1;exitX=0;exitY=0;exitDx=120;exitDy=42.5;exitPerimeter=0;" parent="1" source="G48LcPeiplBSXSL7Oj50-63" edge="1">
          <mxGeometry relative="1" as="geometry">
            <mxPoint x="790" y="453.28571428571433" as="targetPoint" />
          </mxGeometry>
        </mxCell>
        <mxCell id="G48LcPeiplBSXSL7Oj50-66" style="edgeStyle=orthogonalEdgeStyle;rounded=0;orthogonalLoop=1;jettySize=auto;html=1;exitX=0;exitY=0.5;exitDx=0;exitDy=0;exitPerimeter=0;entryX=0.5;entryY=1;entryDx=0;entryDy=0;dashed=1;" parent="1" source="G48LcPeiplBSXSL7Oj50-63" target="G48LcPeiplBSXSL7Oj50-60" edge="1">
          <mxGeometry relative="1" as="geometry" />
        </mxCell>
        <mxCell id="G48LcPeiplBSXSL7Oj50-63" value="Vista Búsqueda Usuarios" style="shape=note2;boundedLbl=1;whiteSpace=wrap;html=1;size=25;verticalAlign=top;align=center;fillColor=#f5f5f5;gradientColor=#b3b3b3;strokeColor=#666666;" parent="1" vertex="1">
          <mxGeometry x="645" y="411" width="120" height="60" as="geometry" />
        </mxCell>
        <mxCell id="G48LcPeiplBSXSL7Oj50-64" style="edgeStyle=orthogonalEdgeStyle;rounded=0;orthogonalLoop=1;jettySize=auto;html=1;exitX=0.5;exitY=1;exitDx=0;exitDy=0;entryX=0.5;entryY=0;entryDx=0;entryDy=0;entryPerimeter=0;" parent="1" source="CJnJMejJHdUVeMbxGaK8-25" target="G48LcPeiplBSXSL7Oj50-63" edge="1">
          <mxGeometry relative="1" as="geometry" />
        </mxCell>
        <mxCell id="OYWwjHaSAx933lPuoC0m-10" style="edgeStyle=orthogonalEdgeStyle;rounded=0;orthogonalLoop=1;jettySize=auto;html=1;exitX=1;exitY=0.5;exitDx=0;exitDy=0;endArrow=none;endFill=0;" edge="1" parent="1" source="OYWwjHaSAx933lPuoC0m-4">
          <mxGeometry relative="1" as="geometry">
            <mxPoint x="640" y="585" as="targetPoint" />
          </mxGeometry>
        </mxCell>
        <mxCell id="OYWwjHaSAx933lPuoC0m-54" style="edgeStyle=orthogonalEdgeStyle;rounded=0;orthogonalLoop=1;jettySize=auto;html=1;exitX=0.25;exitY=1;exitDx=0;exitDy=0;entryX=0.5;entryY=1;entryDx=0;entryDy=0;" edge="1" parent="1" source="OYWwjHaSAx933lPuoC0m-4" target="OYWwjHaSAx933lPuoC0m-52">
          <mxGeometry relative="1" as="geometry" />
        </mxCell>
        <mxCell id="OYWwjHaSAx933lPuoC0m-4" value="Aulas" style="rounded=1;whiteSpace=wrap;html=1;fillColor=#fff2cc;strokeColor=#d6b656;" vertex="1" parent="1">
          <mxGeometry x="500" y="570" width="120" height="30" as="geometry" />
        </mxCell>
        <mxCell id="OYWwjHaSAx933lPuoC0m-9" style="edgeStyle=orthogonalEdgeStyle;rounded=0;orthogonalLoop=1;jettySize=auto;html=1;exitX=0;exitY=0.5;exitDx=0;exitDy=0;entryX=0;entryY=0.5;entryDx=0;entryDy=0;startArrow=classic;startFill=1;" edge="1" parent="1" source="OYWwjHaSAx933lPuoC0m-7" target="OYWwjHaSAx933lPuoC0m-8">
          <mxGeometry relative="1" as="geometry" />
        </mxCell>
        <mxCell id="OYWwjHaSAx933lPuoC0m-7" value="Nueva Aula" style="rounded=1;whiteSpace=wrap;html=1;fillColor=#dae8fc;strokeColor=#6c8ebf;" vertex="1" parent="1">
          <mxGeometry x="660" y="550" width="70" height="30" as="geometry" />
        </mxCell>
        <mxCell id="OYWwjHaSAx933lPuoC0m-20" style="edgeStyle=orthogonalEdgeStyle;rounded=0;orthogonalLoop=1;jettySize=auto;html=1;exitX=0.5;exitY=1;exitDx=0;exitDy=0;" edge="1" parent="1" source="OYWwjHaSAx933lPuoC0m-8" target="OYWwjHaSAx933lPuoC0m-19">
          <mxGeometry relative="1" as="geometry" />
        </mxCell>
        <mxCell id="OYWwjHaSAx933lPuoC0m-8" value="Consultar Aulas" style="rounded=1;whiteSpace=wrap;html=1;fillColor=#dae8fc;strokeColor=#6c8ebf;" vertex="1" parent="1">
          <mxGeometry x="660" y="590" width="70" height="30" as="geometry" />
        </mxCell>
        <mxCell id="OYWwjHaSAx933lPuoC0m-16" style="edgeStyle=orthogonalEdgeStyle;rounded=0;orthogonalLoop=1;jettySize=auto;html=1;exitX=0;exitY=0;exitDx=120;exitDy=42.5;exitPerimeter=0;entryX=0;entryY=0.5;entryDx=0;entryDy=0;" edge="1" parent="1" source="OYWwjHaSAx933lPuoC0m-11" target="OYWwjHaSAx933lPuoC0m-14">
          <mxGeometry relative="1" as="geometry">
            <mxPoint x="960" y="552.4761904761905" as="targetPoint" />
          </mxGeometry>
        </mxCell>
        <mxCell id="OYWwjHaSAx933lPuoC0m-33" style="edgeStyle=orthogonalEdgeStyle;rounded=0;orthogonalLoop=1;jettySize=auto;html=1;exitX=0;exitY=0;exitDx=47.5;exitDy=0;exitPerimeter=0;entryX=0.5;entryY=0;entryDx=0;entryDy=0;dashed=1;" edge="1" parent="1" source="OYWwjHaSAx933lPuoC0m-11" target="OYWwjHaSAx933lPuoC0m-32">
          <mxGeometry relative="1" as="geometry">
            <Array as="points">
              <mxPoint x="839" y="500" />
              <mxPoint x="560" y="500" />
            </Array>
          </mxGeometry>
        </mxCell>
        <mxCell id="OYWwjHaSAx933lPuoC0m-11" value="Vista Nueva Aula" style="shape=note2;boundedLbl=1;whiteSpace=wrap;html=1;size=25;verticalAlign=top;align=center;fillColor=#f5f5f5;gradientColor=#b3b3b3;strokeColor=#666666;" vertex="1" parent="1">
          <mxGeometry x="791" y="510" width="120" height="60" as="geometry" />
        </mxCell>
        <mxCell id="OYWwjHaSAx933lPuoC0m-13" style="edgeStyle=orthogonalEdgeStyle;rounded=0;orthogonalLoop=1;jettySize=auto;html=1;exitX=0.5;exitY=0;exitDx=0;exitDy=0;entryX=0;entryY=0.5;entryDx=0;entryDy=0;entryPerimeter=0;" edge="1" parent="1" source="OYWwjHaSAx933lPuoC0m-7" target="OYWwjHaSAx933lPuoC0m-11">
          <mxGeometry relative="1" as="geometry">
            <Array as="points">
              <mxPoint x="695" y="540" />
            </Array>
          </mxGeometry>
        </mxCell>
        <mxCell id="OYWwjHaSAx933lPuoC0m-18" style="edgeStyle=orthogonalEdgeStyle;rounded=0;orthogonalLoop=1;jettySize=auto;html=1;exitX=1;exitY=0.5;exitDx=0;exitDy=0;" edge="1" parent="1" source="OYWwjHaSAx933lPuoC0m-14">
          <mxGeometry relative="1" as="geometry">
            <mxPoint x="1080" y="551.9444444444445" as="targetPoint" />
          </mxGeometry>
        </mxCell>
        <mxCell id="OYWwjHaSAx933lPuoC0m-14" value="Grabar" style="rhombus;whiteSpace=wrap;html=1;fillColor=#d5e8d4;gradientColor=#97d077;strokeColor=#82b366;" vertex="1" parent="1">
          <mxGeometry x="980" y="522" width="60" height="60" as="geometry" />
        </mxCell>
        <mxCell id="OYWwjHaSAx933lPuoC0m-23" style="edgeStyle=orthogonalEdgeStyle;rounded=0;orthogonalLoop=1;jettySize=auto;html=1;exitX=0;exitY=0;exitDx=120;exitDy=42.5;exitPerimeter=0;entryX=0;entryY=0.5;entryDx=0;entryDy=0;" edge="1" parent="1" source="OYWwjHaSAx933lPuoC0m-19" target="OYWwjHaSAx933lPuoC0m-22">
          <mxGeometry relative="1" as="geometry" />
        </mxCell>
        <mxCell id="OYWwjHaSAx933lPuoC0m-47" style="edgeStyle=orthogonalEdgeStyle;rounded=0;orthogonalLoop=1;jettySize=auto;html=1;exitX=0;exitY=0.5;exitDx=0;exitDy=0;exitPerimeter=0;dashed=1;" edge="1" parent="1" source="OYWwjHaSAx933lPuoC0m-19">
          <mxGeometry relative="1" as="geometry">
            <mxPoint x="600" y="700.2" as="targetPoint" />
          </mxGeometry>
        </mxCell>
        <mxCell id="OYWwjHaSAx933lPuoC0m-19" value="Vista Búsqueda Aulas" style="shape=note2;boundedLbl=1;whiteSpace=wrap;html=1;size=25;verticalAlign=top;align=center;fillColor=#f5f5f5;gradientColor=#b3b3b3;strokeColor=#666666;" vertex="1" parent="1">
          <mxGeometry x="635" y="670" width="120" height="60" as="geometry" />
        </mxCell>
        <mxCell id="OYWwjHaSAx933lPuoC0m-21" value="Resultados Búsqueda" style="swimlane;whiteSpace=wrap;html=1;startSize=30;fillColor=#f5f5f5;gradientColor=#b3b3b3;strokeColor=#666666;" vertex="1" parent="1">
          <mxGeometry x="801" y="670" width="120" height="62" as="geometry">
            <mxRectangle x="1040" y="188" width="160" height="30" as="alternateBounds" />
          </mxGeometry>
        </mxCell>
        <mxCell id="OYWwjHaSAx933lPuoC0m-22" value="Tabla dinámina" style="text;html=1;align=center;verticalAlign=middle;whiteSpace=wrap;rounded=0;" vertex="1" parent="OYWwjHaSAx933lPuoC0m-21">
          <mxGeometry y="35" width="120" height="15" as="geometry" />
        </mxCell>
        <mxCell id="OYWwjHaSAx933lPuoC0m-28" style="edgeStyle=orthogonalEdgeStyle;rounded=0;orthogonalLoop=1;jettySize=auto;html=1;exitX=0;exitY=0;exitDx=120;exitDy=42.5;exitPerimeter=0;entryX=0;entryY=0.5;entryDx=0;entryDy=0;" edge="1" parent="1" source="OYWwjHaSAx933lPuoC0m-24" target="OYWwjHaSAx933lPuoC0m-27">
          <mxGeometry relative="1" as="geometry" />
        </mxCell>
        <mxCell id="OYWwjHaSAx933lPuoC0m-39" style="edgeStyle=orthogonalEdgeStyle;rounded=0;orthogonalLoop=1;jettySize=auto;html=1;exitX=0;exitY=0.5;exitDx=0;exitDy=0;exitPerimeter=0;dashed=1;" edge="1" parent="1" source="OYWwjHaSAx933lPuoC0m-24">
          <mxGeometry relative="1" as="geometry">
            <mxPoint x="560" y="720" as="targetPoint" />
          </mxGeometry>
        </mxCell>
        <mxCell id="OYWwjHaSAx933lPuoC0m-24" value="Vista Editar Aula" style="shape=note2;boundedLbl=1;whiteSpace=wrap;html=1;size=25;verticalAlign=top;align=center;fillColor=#f5f5f5;gradientColor=#b3b3b3;strokeColor=#666666;" vertex="1" parent="1">
          <mxGeometry x="801" y="750" width="120" height="60" as="geometry" />
        </mxCell>
        <mxCell id="OYWwjHaSAx933lPuoC0m-25" style="edgeStyle=orthogonalEdgeStyle;rounded=0;orthogonalLoop=1;jettySize=auto;html=1;exitX=0.5;exitY=1;exitDx=0;exitDy=0;entryX=0.5;entryY=0;entryDx=0;entryDy=0;entryPerimeter=0;" edge="1" parent="1" source="OYWwjHaSAx933lPuoC0m-21" target="OYWwjHaSAx933lPuoC0m-24">
          <mxGeometry relative="1" as="geometry" />
        </mxCell>
        <mxCell id="OYWwjHaSAx933lPuoC0m-29" style="edgeStyle=orthogonalEdgeStyle;rounded=0;orthogonalLoop=1;jettySize=auto;html=1;exitX=0;exitY=0.5;exitDx=0;exitDy=0;startArrow=classic;startFill=1;endArrow=none;endFill=0;" edge="1" parent="1" source="OYWwjHaSAx933lPuoC0m-26">
          <mxGeometry relative="1" as="geometry">
            <mxPoint x="950" y="701.9655172413793" as="targetPoint" />
          </mxGeometry>
        </mxCell>
        <mxCell id="OYWwjHaSAx933lPuoC0m-31" style="edgeStyle=orthogonalEdgeStyle;rounded=0;orthogonalLoop=1;jettySize=auto;html=1;exitX=1;exitY=0.5;exitDx=0;exitDy=0;" edge="1" parent="1" source="OYWwjHaSAx933lPuoC0m-26">
          <mxGeometry relative="1" as="geometry">
            <mxPoint x="1080" y="702.2" as="targetPoint" />
          </mxGeometry>
        </mxCell>
        <mxCell id="OYWwjHaSAx933lPuoC0m-26" value="Borrar" style="rhombus;whiteSpace=wrap;html=1;fillColor=#f8cecc;gradientColor=#ea6b66;strokeColor=#b85450;" vertex="1" parent="1">
          <mxGeometry x="980" y="672" width="60" height="60" as="geometry" />
        </mxCell>
        <mxCell id="OYWwjHaSAx933lPuoC0m-27" value="Grabar" style="rhombus;whiteSpace=wrap;html=1;fillColor=#d5e8d4;gradientColor=#97d077;strokeColor=#82b366;" vertex="1" parent="1">
          <mxGeometry x="980" y="610" width="60" height="60" as="geometry" />
        </mxCell>
        <mxCell id="OYWwjHaSAx933lPuoC0m-30" style="edgeStyle=orthogonalEdgeStyle;rounded=0;orthogonalLoop=1;jettySize=auto;html=1;exitX=1;exitY=0.5;exitDx=0;exitDy=0;entryX=-0.03;entryY=0.826;entryDx=0;entryDy=0;entryPerimeter=0;" edge="1" parent="1" source="OYWwjHaSAx933lPuoC0m-27" target="G48LcPeiplBSXSL7Oj50-1">
          <mxGeometry relative="1" as="geometry" />
        </mxCell>
        <mxCell id="OYWwjHaSAx933lPuoC0m-34" style="edgeStyle=orthogonalEdgeStyle;rounded=0;orthogonalLoop=1;jettySize=auto;html=1;exitX=0.5;exitY=1;exitDx=0;exitDy=0;entryX=0.5;entryY=0;entryDx=0;entryDy=0;dashed=1;" edge="1" parent="1" source="OYWwjHaSAx933lPuoC0m-32" target="OYWwjHaSAx933lPuoC0m-4">
          <mxGeometry relative="1" as="geometry" />
        </mxCell>
        <mxCell id="OYWwjHaSAx933lPuoC0m-32" value="Cancelar" style="ellipse;whiteSpace=wrap;html=1;fillColor=#e51400;strokeColor=#B20000;fontColor=#ffffff;" vertex="1" parent="1">
          <mxGeometry x="522.5" y="510" width="75" height="36" as="geometry" />
        </mxCell>
        <mxCell id="OYWwjHaSAx933lPuoC0m-46" style="edgeStyle=orthogonalEdgeStyle;rounded=0;orthogonalLoop=1;jettySize=auto;html=1;exitX=0.5;exitY=0;exitDx=0;exitDy=0;entryX=0.5;entryY=1;entryDx=0;entryDy=0;dashed=1;" edge="1" parent="1" source="OYWwjHaSAx933lPuoC0m-35" target="OYWwjHaSAx933lPuoC0m-4">
          <mxGeometry relative="1" as="geometry" />
        </mxCell>
        <mxCell id="OYWwjHaSAx933lPuoC0m-35" value="Cancelar" style="ellipse;whiteSpace=wrap;html=1;fillColor=#e51400;strokeColor=#B20000;fontColor=#ffffff;" vertex="1" parent="1">
          <mxGeometry x="522.5" y="683" width="75" height="36" as="geometry" />
        </mxCell>
        <mxCell id="OYWwjHaSAx933lPuoC0m-42" style="edgeStyle=orthogonalEdgeStyle;rounded=0;orthogonalLoop=1;jettySize=auto;html=1;exitX=0.5;exitY=1;exitDx=0;exitDy=0;entryX=1;entryY=0.5;entryDx=0;entryDy=0;dashed=1;" edge="1" parent="1" source="OYWwjHaSAx933lPuoC0m-40" target="CJnJMejJHdUVeMbxGaK8-3">
          <mxGeometry relative="1" as="geometry" />
        </mxCell>
        <mxCell id="OYWwjHaSAx933lPuoC0m-40" value="Cancelar" style="ellipse;whiteSpace=wrap;html=1;fillColor=#e51400;strokeColor=#B20000;fontColor=#ffffff;" vertex="1" parent="1">
          <mxGeometry x="340" y="125" width="75" height="36" as="geometry" />
        </mxCell>
        <mxCell id="OYWwjHaSAx933lPuoC0m-48" value="" style="shape=link;html=1;rounded=0;strokeWidth=3;" edge="1" parent="1">
          <mxGeometry width="100" relative="1" as="geometry">
            <mxPoint x="500" y="484" as="sourcePoint" />
            <mxPoint x="1060" y="484" as="targetPoint" />
          </mxGeometry>
        </mxCell>
        <mxCell id="OYWwjHaSAx933lPuoC0m-51" value="Ir a Aulas" style="ellipse;whiteSpace=wrap;html=1;fillColor=#1ba1e2;strokeColor=#006EAF;fontColor=#ffffff;" vertex="1" parent="1">
          <mxGeometry x="363" y="263" width="75" height="36" as="geometry" />
        </mxCell>
        <mxCell id="OYWwjHaSAx933lPuoC0m-52" value="Ir a Usuarios" style="ellipse;whiteSpace=wrap;html=1;fillColor=#1ba1e2;strokeColor=#006EAF;fontColor=#ffffff;" vertex="1" parent="1">
          <mxGeometry x="370" y="567" width="75" height="36" as="geometry" />
        </mxCell>
      </root>
    </mxGraphModel>
  </diagram>
</mxfile>
